<svg width="53" height="43" viewBox="0 0 53 43" fill="none" xmlns="http://www.w3.org/2000/svg">
<path fill-rule="evenodd" clip-rule="evenodd" d="M8.22412 18.5092C8.22412 10.5981 16.5463 4.20386 26.6129 4.20386C36.7078 4.20386 45.03 10.5981 45.03 18.5092C45.03 22.4957 43.2049 26.1968 40.2009 29.3337C36.8869 32.794 32.8022 35.8088 28.2044 38.1752C27.1521 38.7221 26.2025 38.7634 25.0476 38.1752C20.4236 35.8088 16.3389 32.794 13.0533 29.3337C10.0471 26.1968 8.22412 22.4957 8.22412 18.5092ZM20.5524 18.9547C20.5524 21.6049 23.2748 23.6893 26.6129 23.6893C29.9531 23.6893 32.7017 21.6049 32.7017 18.9547C32.7017 16.3251 29.9531 14.1392 26.6129 14.1392C23.2748 14.1392 20.5524 16.3251 20.5524 18.9547Z" fill="#393939"/>
</svg>
