<svg width="52" height="40" viewBox="0 0 52 40" fill="none" xmlns="http://www.w3.org/2000/svg">
<g filter="url(#filter0_d_44_2)">
<path fill-rule="evenodd" clip-rule="evenodd" d="M36.9025 0.159668C39.8058 0.159668 42.5987 1.07119 44.6534 2.70678C46.7102 4.33892 47.8598 6.54034 47.8598 8.84496V22.4318C47.8598 27.2302 42.9451 31.1171 36.9025 31.1171H15.5139C9.47122 31.1171 4.55872 27.2302 4.55872 22.4318V8.84496C4.55872 4.04655 9.44957 0.159668 15.5139 0.159668H36.9025ZM40.3471 11.4075L40.5203 11.27C41.0377 10.7712 41.0377 10.0489 40.4964 9.5501C40.1955 9.29384 39.782 9.13733 39.3511 9.10293C38.8965 9.08402 38.4635 9.20613 38.1365 9.44691L28.3743 15.6384C27.1186 16.4657 25.3194 16.4657 24.0442 15.6384L14.3015 9.44691C13.6281 9.05134 12.6972 9.10293 12.1364 9.5673C11.5518 10.0317 11.4869 10.7712 11.9827 11.2872L12.2663 11.5107L22.1173 17.6162C23.3297 18.373 24.7998 18.7857 26.3392 18.7857C27.8742 18.7857 29.3702 18.373 30.5805 17.6162L40.3471 11.4075Z" fill="#333333"/>
</g>
<defs>
<filter id="filter0_d_44_2" x="0.558716" y="0.159668" width="51.3011" height="38.9575" filterUnits="userSpaceOnUse" color-interpolation-filters="sRGB">
<feFlood flood-opacity="0" result="BackgroundImageFix"/>
<feColorMatrix in="SourceAlpha" type="matrix" values="0 0 0 0 0 0 0 0 0 0 0 0 0 0 0 0 0 0 127 0" result="hardAlpha"/>
<feOffset dy="4"/>
<feGaussianBlur stdDeviation="2"/>
<feComposite in2="hardAlpha" operator="out"/>
<feColorMatrix type="matrix" values="0 0 0 0 0 0 0 0 0 0 0 0 0 0 0 0 0 0 0.25 0"/>
<feBlend mode="normal" in2="BackgroundImageFix" result="effect1_dropShadow_44_2"/>
<feBlend mode="normal" in="SourceGraphic" in2="effect1_dropShadow_44_2" result="shape"/>
</filter>
</defs>
</svg>
