<?xml version="1.0" standalone="no"?>
<!DOCTYPE svg PUBLIC "-//W3C//DTD SVG 20010904//EN"
 "http://www.w3.org/TR/2001/REC-SVG-20010904/DTD/svg10.dtd">
<svg version="1.0" xmlns="http://www.w3.org/2000/svg"
 width="526.000000pt" height="475.000000pt" viewBox="0 0 526.000000 475.000000"
 preserveAspectRatio="xMidYMid meet">

<g transform="translate(0.000000,475.000000) scale(0.100000,-0.100000)"
fill="#000000" stroke="none">
<path d="M2680 4344 c-285 -57 -480 -237 -580 -534 -34 -100 -44 -173 -45
-317 l0 -143 -33 6 c-80 15 -92 -55 -38 -230 19 -61 38 -133 43 -159 4 -27 12
-49 18 -50 5 -1 20 -60 32 -132 25 -142 24 -292 -2 -350 -7 -16 -21 -51 -30
-77 -14 -39 -29 -57 -87 -100 -153 -116 -205 -144 -308 -172 -96 -26 -190 -63
-505 -199 -149 -64 -397 -150 -467 -163 -20 -3 -44 -14 -52 -23 -42 -47 -65
-156 -67 -321 0 -63 -7 -140 -14 -170 -7 -30 -17 -122 -21 -205 -5 -104 -11
-157 -21 -172 -10 -15 -13 -35 -8 -60 3 -23 -1 -66 -11 -108 -9 -38 -24 -108
-34 -155 -10 -47 -33 -155 -53 -240 -19 -85 -38 -181 -42 -212 l-7 -58 2267 0
2267 0 -6 28 c-3 15 -15 85 -26 155 -12 70 -32 176 -46 235 -13 59 -24 137
-24 174 0 50 -7 86 -29 140 -22 58 -29 95 -34 180 -4 72 -14 134 -32 195 -70
230 -84 284 -95 363 -13 91 -48 205 -78 251 -28 45 -80 77 -167 105 -93 29
-308 114 -445 174 -205 91 -340 139 -435 155 -22 4 -72 28 -111 53 l-72 47
-21 86 c-16 66 -19 93 -11 113 5 15 10 45 10 67 l0 40 -25 -27 c-13 -14 -22
-30 -19 -35 3 -5 -2 -6 -10 -3 -9 3 -16 12 -16 20 0 8 -6 11 -15 8 -23 -9 -7
24 17 37 11 6 17 13 15 16 -3 2 6 21 19 40 29 44 31 57 4 41 -11 -7 -18 -18
-16 -25 3 -7 1 -15 -5 -18 -17 -11 -6 59 13 76 10 9 21 32 24 50 4 26 3 30 -5
19 -9 -13 -11 -13 -11 3 0 9 6 17 14 17 16 0 16 50 2 102 -5 17 -3 34 8 50 9
13 13 37 11 55 -2 20 2 38 11 47 7 8 14 24 14 35 0 11 5 23 10 26 12 7 12 -41
1 -70 -5 -11 -4 -28 1 -39 9 -16 7 -18 -6 -13 -22 9 -20 -5 4 -31 21 -22 9
-42 -14 -23 -9 8 -13 7 -13 -4 0 -8 3 -13 5 -10 3 3 11 0 17 -5 9 -8 17 -2 29
22 10 18 30 51 47 73 78 104 83 116 87 182 4 59 3 65 -17 70 -11 3 -21 9 -21
14 0 5 -11 9 -25 9 -14 0 -25 1 -25 3 0 1 7 34 15 72 19 91 19 303 0 392 -62
295 -216 480 -485 582 -55 21 -172 34 -220 25z m-316 -219 c-4 -8 -9 -15 -13
-15 -3 0 -19 -11 -34 -25 -36 -35 -35 -11 2 26 32 31 54 38 45 14z m844 -114
c3 -8 -1 -12 -9 -9 -7 2 -15 10 -17 17 -3 8 1 12 9 9 7 -2 15 -10 17 -17z m32
-85 c0 -13 -39 35 -40 48 0 5 9 -1 20 -14 11 -13 20 -28 20 -34z m-283 -197
c27 -7 43 -18 46 -31 4 -15 2 -18 -11 -13 -18 8 -60 19 -104 29 -16 4 -28 10
-28 15 0 12 48 12 97 0z m-162 -78 c-6 -5 -25 10 -25 20 0 5 6 4 14 -3 8 -7
12 -15 11 -17z m-277 -66 c-3 -3 -25 -3 -49 1 l-44 7 35 12 c28 10 38 10 49
-1 8 -7 12 -16 9 -19z m807 -50 c19 -202 23 -344 14 -512 -3 -50 -6 -60 -17
-50 -9 9 -10 26 -4 57 4 25 5 59 1 75 -10 47 -10 113 0 96 11 -17 5 99 -13
273 -13 122 -11 161 5 135 4 -8 10 -41 14 -74z m-224 43 c-2 -7 -4 -20 -6 -28
-3 -18 -61 -18 -78 -1 -8 8 -2 11 20 11 18 0 33 6 36 14 4 10 1 13 -9 9 -14
-5 -20 8 -8 20 10 10 49 -11 45 -25z m-996 -54 c-3 -18 -9 -35 -13 -38 -8 -5
-5 53 5 94 l7 25 4 -24 c2 -13 1 -39 -3 -57z m665 61 c0 -8 -4 -15 -10 -15 -5
0 -10 7 -10 15 0 8 5 15 10 15 6 0 10 -7 10 -15z m467 -7 c-3 -8 -6 -5 -6 6
-1 11 2 17 5 13 3 -3 4 -12 1 -19z m-762 -18 c16 -7 13 -9 -17 -9 -21 -1 -38
4 -38 9 0 12 27 12 55 0z m-25 -34 c0 -11 -19 -15 -25 -6 -3 5 1 10 9 10 9 0
16 -2 16 -4z m63 -24 c16 -18 15 -19 -20 -30 -44 -14 -50 -10 -35 23 14 30 33
32 55 7z m538 2 c17 -8 29 -17 27 -20 -7 -7 -68 17 -68 27 0 12 6 11 41 -7z
m-691 -10 c0 -8 -4 -12 -10 -9 -5 3 -10 10 -10 16 0 5 5 9 10 9 6 0 10 -7 10
-16z m584 -40 c4 -9 4 -19 2 -21 -8 -8 -26 8 -26 23 0 19 16 18 24 -2z m-49
-4 c3 -5 1 -10 -4 -10 -6 0 -11 5 -11 10 0 6 2 10 4 10 3 0 8 -4 11 -10z m178
-7 c7 -6 -21 -32 -36 -33 -4 0 -3 9 3 20 11 21 22 25 33 13z m-32 -93 c5 0 9
-7 9 -15 0 -21 -14 -19 -36 7 -18 20 -18 21 -1 15 10 -4 23 -7 28 -7z m-254
-81 c17 -15 17 -29 -1 -29 -8 0 -22 -8 -32 -17 -15 -16 -17 -16 -30 2 -8 10
-14 30 -14 43 0 22 3 24 32 18 17 -3 37 -11 45 -17z m-87 -11 c0 -6 -7 -7 -16
-4 -9 3 -25 6 -35 6 -11 0 -18 4 -15 8 7 12 66 2 66 -10z m154 -43 c19 -14 18
-15 -11 -15 -18 0 -33 6 -37 15 -7 20 22 19 48 0z m-64 -15 c0 -5 -12 -10 -27
-10 -22 0 -25 2 -13 10 20 13 40 13 40 0z m10 -50 c-19 -13 -30 -13 -30 0 0 6
10 10 23 10 18 0 19 -2 7 -10z m240 0 c10 -5 22 -24 26 -42 3 -18 15 -49 25
-68 21 -39 24 -60 9 -60 -5 0 -10 4 -10 9 0 5 -12 24 -27 41 -14 18 -28 46
-30 63 -2 17 -8 36 -13 41 -22 22 -10 32 20 16z m-610 -3 c0 -13 -33 -67 -41
-67 -15 0 -10 32 9 51 15 16 32 24 32 16z m943 -127 c-7 -28 -13 -25 -13 6 0
14 4 23 9 20 5 -3 7 -15 4 -26z m-623 0 c0 -5 -9 -10 -20 -10 -11 0 -20 5 -20
10 0 6 9 10 20 10 11 0 20 -4 20 -10z m47 4 c-3 -3 -12 -4 -19 -1 -8 3 -5 6 6
6 11 1 17 -2 13 -5z m278 -35 c12 -19 -5 -23 -22 -6 -16 16 -16 17 -1 17 9 0
20 -5 23 -11z m-335 -123 c0 -8 7 -19 15 -26 27 -22 1 -30 -60 -19 -33 6 -70
13 -83 15 -13 3 -20 9 -16 15 4 7 25 9 59 4 48 -6 53 -4 58 15 6 23 27 19 27
-4z m36 -228 c4 -6 8 -24 9 -40 2 -25 -1 -27 -24 -21 -14 4 -34 7 -43 7 -11 0
-18 8 -18 18 0 13 8 18 25 18 16 0 25 6 25 15 0 18 16 20 26 3z m-44 -1080
c-9 -9 -12 -7 -12 12 0 19 3 21 12 12 9 -9 9 -15 0 -24z m-46 -623 c-3 -8 -2
-14 2 -14 38 6 55 -14 31 -38 -25 -25 -73 26 -54 57 10 16 28 11 21 -5z m22
-687 c5 -7 13 -23 16 -35 6 -19 2 -25 -18 -33 -35 -13 -56 -3 -56 26 0 26 7
29 29 15 7 -5 10 -14 7 -20 -4 -6 -3 -11 3 -11 22 0 23 24 3 41 -12 9 -22 20
-22 23 0 11 27 6 38 -6z"/>
<path d="M3280 2859 c0 -5 5 -7 10 -4 6 3 10 8 10 11 0 2 -4 4 -10 4 -5 0 -10
-5 -10 -11z"/>
</g>
</svg>
